<svg id="Capa_1" enable-background="new 0 0 512 512" height="512" viewBox="0 0 512 512" width="512" xmlns="http://www.w3.org/2000/svg"><g><g><path d="m376.399 255.819c-4.238 0-8.096-2.787-9.46-6.789-1.345-3.948-.026-8.456 3.249-11.045 3.277-2.59 7.935-2.87 11.488-.662 3.547 2.204 5.387 6.521 4.498 10.605-.987 4.541-5.121 7.891-9.775 7.891z"/><path d="m470.954 346.944-84.55-35.01v-20.728c0-5.522-4.477-10-10-10-5.522 0-10 4.478-10 10v200.794h-57.128v-80.218c0-5.522-4.478-10-10-10h-86.553c-5.523 0-10 4.478-10 10v80.218h-57.127v-430.404h220.809v139.198c0 5.523 4.478 10 10 10 5.523 0 10-4.477 10-10v-149.198c0-5.522-4.477-10-10-10h-20.276v-31.596c0-5.523-4.477-10-10-10h-180.257c-5.523 0-10 4.477-10 10v31.596h-20.276c-5.523 0-10 4.478-10 10v260.339l-84.549 35.01c-3.737 1.548-6.174 5.194-6.174 9.239v145.816c0 5.522 4.477 10 10 10h422.256c5.523 0 10-4.478 10-10v-145.816c-.001-4.045-2.438-7.692-6.175-9.24zm-295.082-326.944h160.256v21.596h-160.256zm-121 342.866 70.724-29.285v158.419h-70.724zm167.851 129.134v-70.218h66.553v70.218zm234.405 0h-70.724v-158.419l70.724 29.285z"/><path d="m329.841 375.346h-53.319c-5.522 0-10-4.478-10-10v-64.78c0-5.522 4.478-10 10-10h53.319c5.522 0 10 4.478 10 10v64.78c0 5.522-4.478 10-10 10zm-43.32-20h33.319v-44.78h-33.319z"/><path d="m235.478 375.346h-53.318c-5.523 0-10-4.478-10-10v-64.78c0-5.522 4.477-10 10-10h53.319c5.523 0 10 4.478 10 10v64.78c-.001 5.522-4.478 10-10.001 10zm-43.318-20h33.319v-44.78h-33.319z"/><path d="m329.841 168.402h-53.319c-5.522 0-10-4.477-10-10v-64.781c0-5.522 4.478-10 10-10h53.319c5.522 0 10 4.478 10 10v64.781c0 5.523-4.478 10-10 10zm-43.32-20h33.319v-44.781h-33.319z"/><path d="m235.478 168.402h-53.318c-5.523 0-10-4.477-10-10v-64.781c0-5.522 4.477-10 10-10h53.319c5.523 0 10 4.478 10 10v64.781c-.001 5.523-4.478 10-10.001 10zm-43.318-20h33.319v-44.781h-33.319z"/><path d="m329.841 271.874h-53.319c-5.522 0-10-4.477-10-10v-64.781c0-5.523 4.478-10 10-10h53.319c5.522 0 10 4.477 10 10v64.781c0 5.523-4.478 10-10 10zm-43.32-20h33.319v-44.781h-33.319z"/><path d="m235.478 271.874h-53.318c-5.523 0-10-4.477-10-10v-64.781c0-5.523 4.477-10 10-10h53.319c5.523 0 10 4.477 10 10v64.781c-.001 5.523-4.478 10-10.001 10zm-43.318-20h33.319v-44.781h-33.319z"/></g></g></svg>