<svg width="40" height="40" viewBox="0 0 40 40" fill="none" xmlns="http://www.w3.org/2000/svg">
<path d="M34.125 3.28125V26.9062H32.8125V3.28125C32.8119 2.75928 32.6043 2.25887 32.2352 1.88978C31.8661 1.5207 31.3657 1.31309 30.8438 1.3125H24.9375V4.35689e-10H30.8438C31.7137 0.000977037 32.5477 0.346993 33.1629 0.962135C33.778 1.57728 34.124 2.41131 34.125 3.28125ZM32.8125 28.2188H34.125V36.0938C34.124 36.9637 33.778 37.7977 33.1629 38.4129C32.5477 39.028 31.7137 39.374 30.8438 39.375H3.28125C2.41131 39.374 1.57728 39.028 0.962135 38.4129C0.346993 37.7977 0.000977037 36.9637 0 36.0938V7.875H1.3125V36.0938C1.31311 36.6157 1.52072 37.1161 1.8898 37.4852C2.25889 37.8543 2.75929 38.0619 3.28125 38.0625H26.9062C27.4282 38.0619 27.9286 37.8543 28.2977 37.4852C28.6668 37.1161 28.8744 36.6157 28.875 36.0938V8.53125H24.9375C24.0676 8.53027 23.2335 8.18426 22.6184 7.56912C22.0032 6.95397 21.6572 6.11994 21.6562 5.25V1.3125H3.28125C2.75929 1.31311 2.25889 1.52072 1.8898 1.8898C1.52072 2.25889 1.31311 2.75929 1.3125 3.28125V6.5625H0V3.28125C0.000977037 2.41131 0.346993 1.57728 0.962135 0.962135C1.57728 0.346993 2.41131 0.000977037 3.28125 4.35689e-10H22.3125C22.3987 -3.13978e-06 22.484 0.0169686 22.5636 0.0499462C22.6433 0.0829238 22.7156 0.131262 22.7766 0.192199L29.9953 7.41095C30.0562 7.47189 30.1046 7.54424 30.1376 7.62386C30.1705 7.70348 30.1875 7.78882 30.1875 7.875V36.0938C30.1882 36.8041 29.9572 37.4953 29.5294 38.0625H30.8438C31.3657 38.0619 31.8661 37.8543 32.2352 37.4852C32.6043 37.1161 32.8119 36.6157 32.8125 36.0938V28.2188ZM27.947 7.21875L22.9688 2.24052V5.25C22.9693 5.77197 23.1769 6.27238 23.546 6.64147C23.9151 7.01055 24.4155 7.21816 24.9375 7.21875H27.947ZM3.28125 10.5H4.59375V25.5938H5.90625V22.3125C5.90625 22.1385 5.97539 21.9715 6.09846 21.8485C6.22153 21.7254 6.38845 21.6562 6.5625 21.6562H9.1875C9.36155 21.6562 9.52847 21.7254 9.65154 21.8485C9.77461 21.9715 9.84375 22.1385 9.84375 22.3125V25.5938H11.1562V19.0312C11.1562 18.8572 11.2254 18.6903 11.3485 18.5672C11.4715 18.4441 11.6385 18.375 11.8125 18.375H14.4375C14.6115 18.375 14.7785 18.4441 14.9015 18.5672C15.0246 18.6903 15.0938 18.8572 15.0938 19.0312V25.5938H16.4062V15.0938C16.4062 14.9197 16.4754 14.7528 16.5985 14.6297C16.7215 14.5066 16.8885 14.4375 17.0625 14.4375H19.6875C19.8615 14.4375 20.0285 14.5066 20.1515 14.6297C20.2746 14.7528 20.3438 14.9197 20.3438 15.0938V25.5938H21.6562V11.1562C21.6562 10.9822 21.7254 10.8153 21.8485 10.6922C21.9715 10.5691 22.1385 10.5 22.3125 10.5H24.9375C25.1115 10.5 25.2785 10.5691 25.4015 10.6922C25.5246 10.8153 25.5938 10.9822 25.5938 11.1562V15.0938H24.2812V11.8125H22.9688V25.5938H24.2812V16.4062H25.5938V25.5938H26.9062V26.9062H3.9375C3.76345 26.9062 3.59653 26.8371 3.47346 26.714C3.35039 26.591 3.28125 26.424 3.28125 26.25V10.5ZM17.7188 25.5938H19.0312V15.75H17.7188V25.5938ZM12.4688 25.5938H13.7812V19.6875H12.4688V25.5938ZM7.21875 25.5938H8.53125V22.9688H7.21875V25.5938ZM11.1562 10.5H5.90625V11.8125H11.1562V10.5ZM5.90625 14.4375H11.1562V13.125H5.90625V14.4375ZM3.28125 29.5312H4.59375V28.2188H3.28125V29.5312ZM7.21875 29.5312V28.2188H5.90625V29.5312H7.21875ZM9.84375 29.5312V28.2188H8.53125V29.5312H9.84375ZM12.4688 29.5312V28.2188H11.1562V29.5312H12.4688ZM15.0938 29.5312V28.2188H13.7812V29.5312H15.0938ZM16.4062 28.2188V29.5312H17.7188V28.2188H16.4062ZM20.3438 28.2188H19.0312V29.5312H20.3438V28.2188ZM21.6562 28.2188V29.5312H22.9688V28.2188H21.6562ZM24.2812 28.2188V29.5312H25.5938V28.2188H24.2812ZM17.0625 3.9375H7.21875V5.25H17.0625V3.9375ZM3.28125 3.9375V5.25H5.90625V3.9375H3.28125ZM17.0625 7.875V6.5625H11.8125V7.875H17.0625ZM3.28125 7.875H10.5V6.5625H3.28125V7.875ZM3.28125 35.4375H10.5V34.125H3.28125V35.4375ZM13.7812 35.4375V34.125H11.8125V35.4375H13.7812ZM3.28125 32.8125H13.7812V31.5H3.28125V32.8125ZM26.9062 31.5H20.3438V32.8125H26.9062V31.5ZM16.4062 32.8125H19.0312V31.5H16.4062V32.8125ZM16.4062 35.4375H26.9062V34.125H16.4062V35.4375ZM39.375 10.5V30.8438C39.3742 30.9456 39.3505 31.0459 39.3057 31.1373L37.9932 33.7623C37.9387 33.8712 37.8549 33.9629 37.7512 34.027C37.6476 34.091 37.5281 34.125 37.4062 34.125C37.2844 34.125 37.1649 34.091 37.0613 34.027C36.9576 33.9629 36.8738 33.8712 36.8193 33.7623L35.5068 31.1373C35.461 31.0462 35.4373 30.9457 35.4375 30.8438V10.5C35.4375 9.97785 35.6449 9.4771 36.0141 9.10788C36.3833 8.73867 36.8841 8.53125 37.4062 8.53125C37.9284 8.53125 38.4292 8.73867 38.7984 9.10788C39.1676 9.4771 39.375 9.97785 39.375 10.5ZM37.6569 31.5H37.1556L37.4062 32.0013L37.6569 31.5ZM38.0625 16.4062H36.75V30.1875H38.0625V16.4062ZM38.0625 12.4688H36.75V15.0938H38.0625V12.4688ZM38.0625 10.5C38.0625 10.326 37.9934 10.159 37.8703 10.036C37.7472 9.91289 37.5803 9.84375 37.4062 9.84375C37.2322 9.84375 37.0653 9.91289 36.9422 10.036C36.8191 10.159 36.75 10.326 36.75 10.5V11.1562H38.0625V10.5Z" fill="black"/>
</svg>
