<svg height="512pt" viewBox="-66 0 512 512" width="512pt" xmlns="http://www.w3.org/2000/svg"><path d="m330 512h-280c-27.570312 0-50-22.429688-50-50v-161c0-5.523438 4.476562-10 10-10s10 4.476562 10 10v161c0 16.542969 13.457031 30 30 30h280c16.542969 0 30-13.457031 30-30v-412c0-16.542969-13.457031-30-30-30h-280c-16.542969 0-30 13.457031-30 30v161c0 5.523438-4.476562 10-10 10s-10-4.476562-10-10v-161c0-27.570312 22.429688-50 50-50h280c27.570312 0 50 22.429688 50 50v412c0 27.570312-22.429688 50-50 50zm0 0"/><path d="m330 447.085938h-280c-5.523438 0-10-4.476563-10-10v-363.085938c0-5.523438 4.476562-10 10-10h280c5.523438 0 10 4.476562 10 10v363.085938c0 5.523437-4.476562 10-10 10zm-270-20h260v-343.085938h-260zm0 0"/><path d="m235.621094 52h-91.242188c-5.523437 0-10-4.476562-10-10s4.476563-10 10-10h91.242188c5.523437 0 10 4.476562 10 10s-4.476563 10-10 10zm0 0"/><path d="m190 479.539062c-2.628906 0-5.210938-1.058593-7.070312-2.929687-1.859376-1.859375-2.929688-4.4375-2.929688-7.070313 0-2.628906 1.070312-5.210937 2.929688-7.070312 1.859374-1.859375 4.441406-2.929688 7.070312-2.929688s5.210938 1.070313 7.070312 2.929688c1.859376 1.859375 2.929688 4.441406 2.929688 7.070312 0 2.632813-1.070312 5.210938-2.929688 7.070313-1.859374 1.871094-4.441406 2.929687-7.070312 2.929687zm0 0"/><path d="m269.964844 263c-17.644532 0-32-14.355469-32-32s14.355468-32 32-32h22c5.523437 0 10 4.476562 10 10s-4.476563 10-10 10h-22c-6.617188 0-12 5.382812-12 12s5.382812 12 12 12c5.523437 0 10 4.476562 10 10s-4.476563 10-10 10zm0 0"/><path d="m269.964844 307h-22c-5.523438 0-10-4.476562-10-10s4.476562-10 10-10h22c6.617187 0 12-5.382812 12-12s-5.382813-12-12-12c-5.523438 0-10-4.476562-10-10s4.476562-10 10-10c17.644531 0 32 14.355469 32 32s-14.355469 32-32 32zm0 0"/><path d="m110.035156 263c-17.644531 0-32-14.355469-32-32s14.355469-32 32-32h22c5.523438 0 10 4.476562 10 10s-4.476562 10-10 10h-22c-6.617187 0-12 5.382812-12 12s5.382813 12 12 12c5.523438 0 10 4.476562 10 10s-4.476562 10-10 10zm0 0"/><path d="m110.035156 307h-22c-5.523437 0-10-4.476562-10-10s4.476563-10 10-10h22c6.617188 0 12-5.382812 12-12s-5.382812-12-12-12c-5.523437 0-10-4.476562-10-10s4.476563-10 10-10c17.644532 0 32 14.355469 32 32s-14.355468 32-32 32zm0 0"/><path d="m190 307c-17.644531 0-32-14.355469-32-32v-44c0-17.644531 14.355469-32 32-32s32 14.355469 32 32v44c0 17.644531-14.355469 32-32 32zm0-88c-6.617188 0-12 5.382812-12 12v44c0 6.617188 5.382812 12 12 12s12-5.382812 12-12v-44c0-6.617188-5.382812-12-12-12zm0 0"/><path d="m10 266c-2.628906 0-5.210938-1.070312-7.070312-2.929688-1.859376-1.859374-2.929688-4.441406-2.929688-7.070312s1.070312-5.210938 2.929688-7.070312c1.859374-1.859376 4.441406-2.929688 7.070312-2.929688s5.210938 1.070312 7.070312 2.929688c1.859376 1.859374 2.929688 4.441406 2.929688 7.070312s-1.070312 5.210938-2.929688 7.070312c-1.859374 1.859376-4.441406 2.929688-7.070312 2.929688zm0 0"/></svg>